<?xml version="1.0" encoding="utf-8"?>
<!-- Svg Vector Icons : http://www.onlinewebfonts.com/icon -->
<!DOCTYPE svg PUBLIC "-//W3C//DTD SVG 1.1//EN" "http://www.w3.org/Graphics/SVG/1.1/DTD/svg11.dtd">
<svg version="1.1" xmlns="http://www.w3.org/2000/svg" xmlns:xlink="http://www.w3.org/1999/xlink" x="0px" y="0px" viewBox="0 0 1000 1000" enable-background="new 0 0 1000 1000" xml:space="preserve">
<metadata> Svg Vector Icons : http://www.onlinewebfonts.com/icon </metadata>
<g><path d="M949.1,991.2c-3.2,0-5.7-0.1-8.7-0.1c0,0,0,0.1,0,0.1l-880.8,0c0.2-0.6,0.3-1.3,0.5-1.9c-3,0.7-5.9,1.8-9.1,1.8c-22.6,0-40.9-18.3-40.9-40.9c0-6.1,1.5-11.7,3.8-16.8l159.9-297h117V691h-89.7L64.6,936.7h24.5h139.2h543.3h139.2h24.5L798.9,691l0,0l0,0h-86.4v-54.6h113.7l160,297.1c2.3,5.2,3.8,10.8,3.8,16.8C990,972.9,971.7,991.2,949.1,991.2z M512.6,810.2l-14.1,17l-14-17c-12.2-14.9-299.6-239.4-299.6-468.3C184.9,158.2,325.8,8.7,499,8.7c172.4,0,313.4,149.4,314.1,333C814.1,570.8,524.9,795.4,512.6,810.2z M498.9,63.2c-143.1,0-259.6,125.3-259.6,279.2c0,177.2,204.7,333.1,259.2,403.1c54.7-69.9,260.7-225.8,260-403C757.9,188.5,641.4,63.2,498.9,63.2z M348.8,322.3c0-82.8,67.4-150.3,150.2-150.3c82.8,0,150.2,67.4,150.2,150.3c0,82.8-67.4,150.2-150.2,150.2C416.1,472.5,348.8,405.1,348.8,322.3z M498.9,418.2c52.7,0,95.6-42.9,95.6-95.4c0-52.6-42.9-95.4-95.6-95.4c-52.7,0-95.6,42.8-95.6,95.4C403.4,375.3,446.2,418.2,498.9,418.2z"/></g>
</svg>